<svg width="77" height="77" viewBox="0 0 77 77" fill="none" xmlns="http://www.w3.org/2000/svg">
<path d="M76.6163 38.6666C76.6163 59.6534 59.6032 76.6666 38.6163 76.6666C17.6295 76.6666 0.616333 59.6534 0.616333 38.6666C0.616333 17.6798 17.6295 0.666626 38.6163 0.666626C59.6032 0.666626 76.6163 17.6798 76.6163 38.6666Z" fill="url(#paint0_linear_1_141)"/>
<path d="M25.1163 59.1666C26.6163 59.1666 28.619 56.0879 31.1013 59.6943C31.5833 60.3946 32.1024 61.1487 32.6545 61.9086C34.6148 64.6069 36.9926 67.8797 39.6163 70.1666C43.0453 73.1554 45.0258 70.5871 47.505 67.3718C49.8643 64.3121 52.6754 60.6666 57.6163 60.6666C73.0508 60.6666 76.0597 37.4158 76.5714 33.4615C76.6189 33.0942 76.645 32.893 76.6573 32.8939C76.6721 32.8949 76.6673 33.1869 76.6567 33.8287C76.6421 34.7176 76.6163 36.2776 76.6163 38.6666C76.6163 59.6535 59.6031 76.6666 38.6163 76.6666C21.602 76.6666 5.22675 63.168 13.1163 61.1666C21.0059 59.1653 24.4102 59.3287 25.1163 59.1666Z" fill="url(#paint1_linear_1_141)"/>
<path d="M25.9941 18.0455C36.0287 35.2948 49.444 38.4037 29.3459 38.4037C9.24783 38.4037 0.616333 59.2453 0.616333 38.4037C0.616333 17.5621 16.9091 0.666626 37.0071 0.666626C57.1052 0.666626 15.9596 0.796248 25.9941 18.0455Z" fill="url(#paint2_linear_1_141)"/>
<path d="M75.6163 30.6665C75.6163 39.2269 63.1163 13.1665 54.1163 30.6665C46.1082 30.6665 42.6163 17.727 42.6163 9.16662C42.6163 0.606207 47.6082 5.66653 55.6163 5.66653C63.6245 5.66653 75.6163 22.1061 75.6163 30.6665Z" fill="white"/>
<defs>
<linearGradient id="paint0_linear_1_141" x1="-7.38367" y1="42.1666" x2="38.6163" y2="76.6666" gradientUnits="userSpaceOnUse">
<stop stop-color="#A0B6CB"/>
<stop offset="1" stop-color="#537698"/>
</linearGradient>
<linearGradient id="paint1_linear_1_141" x1="-7.38368" y1="42.1666" x2="38.6163" y2="76.6666" gradientUnits="userSpaceOnUse">
<stop stop-color="white"/>
</linearGradient>
<linearGradient id="paint2_linear_1_141" x1="-7.04488" y1="41.8795" x2="38.1472" y2="74.5644" gradientUnits="userSpaceOnUse">
<stop stop-color="white"/>
</linearGradient>
</defs>
</svg>
